<svg xmlns="http://www.w3.org/2000/svg" width="720" height="520" viewBox="0 0 720 520" role="img" aria-label="Las Vegas skyline and appliance icons">
  <defs>
    <linearGradient id="sky" x1="0" x2="0" y1="0" y2="1">
      <stop offset="0" stop-color="#0b3c5d"/>
      <stop offset="1" stop-color="#0a2f48"/>
    </linearGradient>
    <linearGradient id="glow" x1="0" x2="1">
      <stop offset="0" stop-color="#e94b3c" stop-opacity=".9"/>
      <stop offset="1" stop-color="#ff6b5f" stop-opacity=".9"/>
    </linearGradient>
  </defs>

  <rect width="720" height="520" fill="url(#sky)"/>
  <circle cx="580" cy="100" r="58" fill="url(#glow)" opacity=".25"/>
  <circle cx="120" cy="140" r="80" fill="#ffffff" opacity=".06"/>

  <g opacity=".9">
    <rect x="70" y="270" width="80" height="170" fill="#0f507a"/>
    <rect x="165" y="230" width="60" height="210" fill="#124a6c"/>
    <rect x="240" y="200" width="70" height="240" fill="#0f507a"/>
    <rect x="330" y="240" width="55" height="200" fill="#124a6c"/>
    <rect x="400" y="210" width="90" height="230" fill="#0f507a"/>
    <rect x="505" y="255" width="65" height="185" fill="#124a6c"/>
    <rect x="585" y="225" width="70" height="215" fill="#0f507a"/>
  </g>

  <rect x="0" y="420" width="720" height="10" fill="url(#glow)"/>

  <g transform="translate(70,55)" fill="#ffffff" opacity=".92">
    <rect x="0" y="0" width="92" height="122" rx="14"/>
    <line x1="0" y1="62" x2="92" y2="62" stroke="#e5e7eb" stroke-width="4"/>
    <rect x="78" y="30" width="5" height="18" rx="2" fill="#0b3c5d"/>
    <rect x="78" y="78" width="5" height="26" rx="2" fill="#0b3c5d"/>
  </g>
  <g transform="translate(210,55)" fill="#ffffff" opacity=".92">
    <rect x="0" y="0" width="92" height="122" rx="14"/>
    <circle cx="46" cy="70" r="28" fill="#0b3c5d" opacity=".15"/>
    <circle cx="46" cy="70" r="22" fill="#ffffff" opacity=".9"/>
    <rect x="16" y="16" width="60" height="10" rx="5" fill="#0b3c5d" opacity=".25"/>
  </g>
  <g transform="translate(350,55)" fill="#ffffff" opacity=".92">
    <rect x="0" y="0" width="110" height="122" rx="14"/>
    <rect x="14" y="34" width="82" height="62" rx="10" fill="#0b3c5d" opacity=".12"/>
    <rect x="22" y="42" width="66" height="46" rx="8" fill="#ffffff" opacity=".9"/>
    <circle cx="30" cy="20" r="5" fill="#e94b3c"/>
    <circle cx="52" cy="20" r="5" fill="#e94b3c"/>
    <circle cx="74" cy="20" r="5" fill="#e94b3c"/>
  </g>

  <text x="360" y="480" text-anchor="middle" font-family="Arial, Helvetica, sans-serif" font-size="22" font-weight="800" fill="#ffffff" opacity=".9">
    AP Appliance Service • Las Vegas
  </text>
</svg>
